# xmcd
#
# Track frame offsets:
#	150
#	17100
#	28351
#	40986
#	54597
#	69184
#	86995
#	100197
#	109795
#	131356
#
# Disc length: 1915 seconds
#
# Revision: 1
# Processed by: cddbd v1.5.1PL0 Copyright (c) Steve Scherf et al.
# Submitted via: audiograbber 1.83.01
#
DISCID=8407790a
DTITLE=Gail Davies - Givin' Herself Away
DYEAR=1982
DGENRE=Country
TTITLE0=Round The Clock Lovin'
TTITLE1=Movin' (I Might Decide To Stay)
TTITLE2=Hold On
TTITLE3=It's Amazing What A Little Love Can Do
TTITLE4=Dream Baby (How Long Must I Dream)
TTITLE5=Givin' Herself Away
TTITLE6=All The Fire Is Gone
TTITLE7=Singing The Blues
TTITLE8=You Turn Me On I'm A Radio
TTITLE9=Dawn
EXTD=
EXTT0=
EXTT1=
EXTT2=
EXTT3=
EXTT4=
EXTT5=
EXTT6=
EXTT7=
EXTT8=
EXTT9=
PLAYORDER=
